{
  "accessors": [
    {
      "name": "concrete_cat_statue-Mesh_0_positions",
      "componentType": 5126,
      "count": 6863,
      "min": [
        -0.07814999669790268,
        0,
        -0.14975200593471527
      ],
      "max": [
        0.07482200115919113,
        0.28301000595092773,
        0.10024800151586533
      ],
      "type": "VEC3",
      "bufferView": 0,
      "byteOffset": 0
    },
    {
      "name": "concrete_cat_statue-Mesh_0_normals",
      "componentType": 5126,
      "count": 6863,
      "min": [
        -0.9999713897705078,
        -1,
        -0.9941220283508301
      ],
      "max": [
        0.9998658895492554,
        0.9942258596420288,
        0.9998193979263306
      ],
      "type": "VEC3",
      "bufferView": 1,
      "byteOffset": 0
    },
    {
      "name": "concrete_cat_statue-Mesh_0_texcoords",
      "componentType": 5126,
      "count": 6863,
      "min": [
        0.0004600000102072954,
        0.017138000577688217
      ],
      "max": [
        0.9995399713516235,
        0.9995399713516235
      ],
      "type": "VEC2",
      "bufferView": 2,
      "byteOffset": 0
    },
    {
      "name": "concrete_cat_statue-Mesh_0_indices",
      "componentType": 5123,
      "count": 35850,
      "min": [
        0
      ],
      "max": [
        6862
      ],
      "type": "SCALAR",
      "bufferView": 3,
      "byteOffset": 0
    }
  ],
  "asset": {
    "generator": "obj2gltf",
    "version": "2.0"
  },
  "buffers": [
    {
      "name": "cat",
      "byteLength": 291316,
      "uri": "cat.bin"
    }
  ],
  "bufferViews": [
    {
      "name": "bufferView_0",
      "buffer": 0,
      "byteLength": 82356,
      "byteOffset": 0,
      "byteStride": 12,
      "target": 34962
    },
    {
      "name": "bufferView_1",
      "buffer": 0,
      "byteLength": 82356,
      "byteOffset": 82356,
      "byteStride": 12,
      "target": 34962
    },
    {
      "name": "bufferView_2",
      "buffer": 0,
      "byteLength": 54904,
      "byteOffset": 164712,
      "byteStride": 8,
      "target": 34962
    },
    {
      "name": "bufferView_3",
      "buffer": 0,
      "byteLength": 71700,
      "byteOffset": 219616,
      "target": 34963
    }
  ],
  "images": [
    {
      "name": "concrete_cat_statue_diff_4k",
      "uri": "concrete_cat_statue_diff_4k.png"
    },
    {
      "name": "concrete_cat_statue_metal_4k_concrete_cat_statue_rough_4k_ao_map",
      "uri": "concrete_cat_statue_metal_4k_concrete_cat_statue_rough_4k_ao_map.png"
    },
    {
      "name": "concrete_cat_statue_nor_gl_4k",
      "uri": "concrete_cat_statue_nor_gl_4k.png"
    }
  ],
  "materials": [
    {
      "name": "concrete_cat_statue",
      "pbrMetallicRoughness": {
        "baseColorTexture": {
          "index": 0
        },
        "metallicRoughnessTexture": {
          "index": 1
        },
        "baseColorFactor": [
          1,
          1,
          1,
          1
        ],
        "metallicFactor": 1,
        "roughnessFactor": 1
      },
      "normalTexture": {
        "index": 2
      },
      "occlusionTexture": {
        "index": 1
      },
      "emissiveFactor": [
        0,
        0,
        0
      ],
      "alphaMode": "OPAQUE",
      "doubleSided": false
    }
  ],
  "meshes": [
    {
      "name": "concrete_cat_statue-Mesh",
      "primitives": [
        {
          "attributes": {
            "POSITION": 0,
            "NORMAL": 1,
            "TEXCOORD_0": 2
          },
          "indices": 3,
          "material": 0,
          "mode": 4
        }
      ]
    }
  ],
  "nodes": [
    {
      "name": "concrete_cat_statue",
      "mesh": 0
    }
  ],
  "samplers": [
    {
      "wrapS": 10497,
      "wrapT": 10497
    }
  ],
  "scene": 0,
  "scenes": [
    {
      "nodes": [
        0
      ]
    }
  ],
  "textures": [
    {
      "name": "concrete_cat_statue_diff_4k",
      "sampler": 0,
      "source": 0
    },
    {
      "name": "concrete_cat_statue_metal_4k_concrete_cat_statue_rough_4k_ao_map",
      "sampler": 0,
      "source": 1
    },
    {
      "name": "concrete_cat_statue_nor_gl_4k",
      "sampler": 0,
      "source": 2
    }
  ]
}
